<?xml version="1.0" standalone="no"?>
<!DOCTYPE svg PUBLIC "-//W3C//DTD SVG 20010904//EN"
 "http://www.w3.org/TR/2001/REC-SVG-20010904/DTD/svg10.dtd">
<svg version="1.0" xmlns="http://www.w3.org/2000/svg"
 width="86.000000pt" height="102.000000pt" viewBox="0 0 86.000000 102.000000"
 preserveAspectRatio="xMidYMid meet">

<g transform="translate(0.000000,102.000000) scale(0.100000,-0.100000)"
fill="#000000" stroke="none">
<path d="M125 998 c-16 -6 -43 -22 -58 -37 -56 -51 -57 -61 -57 -463 0 -362 0
-371 22 -409 43 -77 147 -100 218 -49 40 29 61 71 67 139 l5 56 88 -3 c217 -8
368 108 411 314 12 58 6 154 -10 154 -24 0 -49 -50 -56 -110 -4 -36 -17 -87
-30 -115 -25 -57 -95 -126 -152 -150 -50 -22 -176 -30 -241 -16 -77 16 -80 13
-84 -91 -3 -85 -5 -91 -32 -115 -23 -20 -37 -24 -63 -20 -70 12 -68 -2 -68
419 l0 378 28 27 27 28 193 0 193 0 67 -34 c65 -33 68 -33 87 -16 27 25 26 28
-19 58 -83 55 -144 67 -333 66 -95 0 -186 -5 -203 -11z"/>
<path d="M591 720 c-107 -105 -203 -190 -212 -190 -10 0 -49 31 -87 70 -72 73
-97 83 -125 52 -35 -38 -22 -63 87 -170 71 -71 110 -102 127 -102 17 0 82 59
246 222 189 189 223 227 223 252 0 29 -23 55 -50 55 -8 1 -102 -85 -209 -189z"/>
<path d="M237 793 c-4 -3 -7 -17 -7 -29 0 -29 14 -33 140 -37 52 -1 102 -6
111 -10 19 -9 64 27 54 43 -17 27 -76 40 -183 40 -60 0 -112 -3 -115 -7z"/>
</g>
</svg>
